<svg aria-hidden="true" style="position: absolute; width: 0; height: 0; overflow: hidden;" version="1.1" xmlns="http://www.w3.org/2000/svg" xmlns:xlink="http://www.w3.org/1999/xlink">
    <defs>
        <symbol id="iconphonehead" viewBox="0 0 32 32">
            <path fill="#fff" style="fill: var(--color1, #fff)" opacity="0.8" d="M16 0c-8.836 0-16 7.164-16 16s7.164 16 16 16c8.836 0 16-7.164 16-16s-7.164-16-16-16zM20.303 24.245c-2.12-0.131-6.289-2.565-8.232-4.752-1.937-2.188-3.861-6.617-3.735-8.741 0 0 2.309-3.055 3.369-2.993 1.068 0.064 4.057 3.435 2.927 4.437-1.12 0.996-2.183 0.935-2.245 1.992-0.060 1.060 0.935 2.188 1.927 3.311 1.003 1.128 1.997 2.247 3.060 2.307 1.060 0.067 1.125-0.991 2.245-1.993 1.125-0.997 4.12 2.379 4.055 3.439-0.059 1.056-3.371 2.995-3.371 2.995z"></path>
        </symbol>
        <symbol id="iconmailhead" viewBox="0 0 32 32">
            <path fill="#fff" style="fill: var(--color1, #fff)" d="M16 0c-8.839 0-16 7.164-16 16 0 8.839 7.161 16 16 16 8.835 0 16-7.161 16-16 0-8.836-7.165-16-16-16zM25.569 9.371l0.023 0.004-8.929 8.931c-0.299 0.297-0.823 0.297-1.121-0.003l-8.933-8.932h18.961zM5.985 9.969c0-0.007 0.004-0.011 0.004-0.011l6.068 6.065-6.072 6.072v-12.127zM6.583 22.797c-0.027 0-0.052-0.013-0.079-0.017l6.155-6.153 2.279 2.279c0.308 0.311 0.724 0.48 1.165 0.48 0.437 0 0.853-0.169 1.161-0.48l2.204-2.205 6.096 6.097h-18.981zM26.168 22.195l-6.096-6.096 6.096-6.096v12.192z"></path>
        </symbol>
        <symbol id="iconinstagram" viewBox="0 0 32 32">
            <path fill="#ef1f4c" style="fill: var(--color1, #ef1f4c)" d="M26.4 32h-20.8c-3.093 0-5.6-2.507-5.6-5.6v-20.8c0-3.093 2.507-5.6 5.6-5.6h20.8c3.093 0 5.6 2.507 5.6 5.6v20.8c0 3.093-2.507 5.6-5.6 5.6z"></path>
            <path fill="#fff" style="fill: var(--color2, #fff)" d="M22 28h-12c-3.314 0-6-2.686-6-6v0-12c0-3.314 2.686-6 6-6v0h12c3.314 0 6 2.686 6 6v0 12c0 3.314-2.686 6-6 6v0zM10 6.4c-1.987 0.003-3.597 1.613-3.6 3.6v12c0.003 1.987 1.613 3.597 3.6 3.6h12c1.987-0.003 3.597-1.613 3.6-3.6v-12c-0.003-1.987-1.613-3.597-3.6-3.6h-0z"></path>
            <path fill="#fff" style="fill: var(--color2, #fff)" d="M16 22.8c-3.756 0-6.8-3.044-6.8-6.8s3.044-6.8 6.8-6.8c3.756 0 6.8 3.044 6.8 6.8v0c-0.003 3.754-3.046 6.797-6.8 6.8h-0zM16 11.6c-2.43 0-4.4 1.97-4.4 4.4s1.97 4.4 4.4 4.4c2.43 0 4.4-1.97 4.4-4.4v0c-0.003-2.429-1.971-4.397-4.4-4.4h-0z"></path>
            <path fill="#fff" style="fill: var(--color2, #fff)" d="M24 9.6c0 0.663-0.537 1.2-1.2 1.2s-1.2-0.537-1.2-1.2c0-0.663 0.537-1.2 1.2-1.2s1.2 0.537 1.2 1.2z"></path>
        </symbol>
        <symbol id="iconwhatsapp_icon" viewBox="0 0 32 32">
            <path fill="#2ab200" style="fill: var(--color3, #2ab200)" d="M3.434 0h25.132c1.896 0 3.434 1.537 3.434 3.434v25.132c0 1.896-1.537 3.434-3.434 3.434h-25.132c-1.897 0-3.434-1.537-3.434-3.434v-25.132c0-1.897 1.537-3.434 3.434-3.434z"></path>
            <path fill="#fff" style="fill: var(--color2, #fff)" d="M16.174 4.977c5.972 0 10.799 4.827 10.799 10.75 0 5.972-4.827 10.799-10.799 10.799-1.891 0-3.732-0.498-5.275-1.344l-5.872 1.841 1.841-5.773c-0.946-1.593-1.493-3.484-1.493-5.524 0-5.922 4.827-10.75 10.799-10.75zM13.686 14.93s0.796 1.294 2.090 2.339c1.294 0.995 1.991 1.194 1.991 1.194s1.145-1.443 1.294-1.443c0.149-0.050 1.145 0.398 1.593 0.647 0.398 0.199 0.995 0.547 0.995 0.697 0 0.1-0.050 0.995-0.348 1.344-0.299 0.299-1.145 1.095-1.941 0.995-3.882-0.299-7.465-3.832-8.112-6.42-0.1-0.448-0.050-2.19 0.299-2.638 0.398-0.448 0.647-0.746 1.145-0.796s0.796 0 0.946 0.348c0.199 0.348 0.946 2.040 0.995 2.239s-0.995 1.194-0.946 1.493zM12.143 23.788c1.194 0.597 2.588 0.946 4.031 0.946 4.977 0 8.958-4.031 8.958-9.008 0-4.927-3.981-8.958-8.958-8.958s-9.008 4.031-9.008 8.958c0 1.941 0.647 3.733 1.642 5.176l-0.995 3.434 3.434-1.045 0.896 0.498z"></path>
            <path fill="#229000" style="fill: var(--color4, #229000)" d="M26.974 15.726c0 8.311-8.958 13.437-16.075 9.456l-5.872 1.841 4.977 4.977h18.513l3.484-3.484v-11.894l-6.818-6.818c1.095 1.692 1.792 3.732 1.792 5.922z"></path>
            <path fill="#229000" style="fill: var(--color4, #229000)" d="M12.143 23.788c5.872 2.936 12.989-1.294 12.989-8.062 0-4.927-3.981-8.958-8.958-8.958-7.316 0-11.496 8.261-7.365 14.134l-0.995 3.434 3.434-1.045 0.896 0.498zM19.359 20.703c-3.882-0.299-7.465-3.832-8.112-6.42-0.249-1.045 0.050-3.285 1.443-3.434 0.498-0.050 0.796 0 0.946 0.348 0.199 0.348 0.946 2.040 0.995 2.239s-0.995 1.194-0.946 1.493c0.547 0.946 2.638 3.185 4.081 3.533 1.393-1.742 1.045-1.742 2.886-0.796 0.398 0.199 0.995 0.547 0.995 0.697 0 1.493-1.344 2.439-2.289 2.339z"></path>
        </symbol>
    </defs>
</svg>